<?xml version="1.0" encoding="UTF-8"?>
<svg width="29px" height="40px" viewBox="0 0 29 40" version="1.1" xmlns="http://www.w3.org/2000/svg" xmlns:xlink="http://www.w3.org/1999/xlink">
    <!-- Generator: Sketch 52.4 (67378) - http://www.bohemiancoding.com/sketch -->
    <title>pollpass-logo</title>
    <desc>Created with Sketch.</desc>
    <g id="Messenger" stroke="none" stroke-width="1" fill="none" fill-rule="evenodd">
        <g id="Messenger-v2---Desktop---1.6" transform="translate(-316.000000, -14.000000)" fill="#AEB8CC">
            <g id="Pollpas-Nav">
                <g id="Logo" transform="translate(316.000000, 14.000000)">
                    <path d="M7.31329222,1.25877242 L11.7334022,0.315906575 C19.2848508,-1.29439401 26.8556708,3.41079229 28.6116361,10.8028605 C29.4970255,14.5320378 28.856628,18.374359 26.8123699,21.6212461 C24.7681117,24.870419 21.5854958,27.099011 17.8490842,27.8990184 L15.7854546,28.3390225 C14.7359776,28.5618817 13.6773846,28.3310224 12.8113667,27.686445 C12.0900649,27.1492972 11.5807096,26.3298611 11.3778791,25.3709951 L10.4605837,21.0463837 L7.26429383,21.7275328 C4.59673067,22.2955381 1.97018941,20.5823794 1.40499875,17.9114976 L0.202829108,12.2428738 C-0.855763877,7.24625628 2.33482854,2.31935364 7.31329222,1.25877242 Z M12.9697568,17.1709193 L15.4527214,16.6417716 C16.8360711,16.3469117 17.7670404,15.065757 17.5778838,13.7251732 C17.4741896,13.0085952 17.092458,12.3811608 16.4987799,11.9674427 C15.9073808,11.5514389 15.1917765,11.4085804 14.4887067,11.5582961 L12.7657868,11.9262995 C12.2883374,12.0280147 11.9806731,12.5034477 12.0820884,12.9811664 L12.9697568,17.1709193 Z M16.237835,19.8143723 L13.6477577,20.3663774 L14.5867034,24.8007041 C14.6117724,24.9195623 14.6767237,25.0155632 14.7769995,25.0818495 C14.8784147,25.1447073 14.9923645,25.1675646 15.1074537,25.1424215 L16.9488813,24.7504179 C19.8409255,24.1298407 22.4184683,22.330967 24.019462,19.8075151 C25.5896893,17.3309208 26.1047421,14.4326083 25.4620656,11.6382968 C24.1448067,5.9045296 18.4006009,2.23478143 12.6620925,3.45764987 L7.99015361,4.4542305 C4.76879476,5.14109398 2.70402567,8.32969485 3.39000304,11.5640104 L4.59103318,17.2314913 C4.78360823,18.141214 5.6769741,18.7252194 6.58629294,18.5309319 L9.78372235,17.8497828 L8.877822,13.5766004 C8.41176761,11.3811516 9.81562827,9.21427445 12.0046026,8.74798443 L13.6602921,8.39483831 C16.7916307,7.72740358 19.8671339,9.56742057 20.662503,12.5845913 C21.0784195,14.1480343 20.8391251,15.7709064 19.9958971,17.1526335 C19.1469716,18.5320748 17.8137598,19.4783692 16.237835,19.8143723 Z M2.52831518,35.3898304 C1.86284876,32.24923 3.86608501,29.1543443 6.99742357,28.4869095 C10.1253436,27.8206177 13.2111023,29.830922 13.8765687,32.9703795 C14.5408956,36.1075513 12.5376594,39.2058657 9.41087883,39.8721575 C6.27954027,40.5395923 3.19264211,38.5270022 2.52831518,35.3898304 Z M5.71434961,34.710967 C6.00606092,36.0881226 7.35864421,36.9692736 8.73287794,36.6766994 C10.1036932,36.3841253 10.9856641,35.0275414 10.6928133,33.6492429 C10.401102,32.2720873 9.0451002,31.3909364 7.67428496,31.6835105 C6.30119072,31.9760846 5.42263831,33.3326686 5.71434961,34.710967 Z" id="pollpass-logo"></path>
                </g>
            </g>
        </g>
    </g>
</svg>